<svg width="217" height="194" viewBox="0 0 217 194" fill="none" xmlns="http://www.w3.org/2000/svg">
<g filter="url(#filter0_d_7_97)">
<path d="M79.0159 69.2848C79.9442 69.2848 80.8846 69.2213 81.8084 69.0972C89.1274 68.1201 95.4081 63.4779 99.4929 56.0256C103.382 48.9312 104.816 40.0689 103.531 31.0729C101.044 13.6491 88.4108 0 74.772 0C73.8436 0 72.9025 0.0635322 71.9757 0.188405C64.8375 1.15015 58.648 5.65872 54.5488 12.8816C50.4723 20.0556 48.9486 29.056 50.2568 38.2236C52.7479 55.6408 65.38 69.2848 79.0159 69.2848ZM60.5876 16.1021C63.6138 10.7712 67.9948 7.46902 72.9266 6.80449C73.54 6.72197 74.1616 6.67961 74.7727 6.67961C84.873 6.67961 94.7118 18.0328 96.7041 31.9887C97.7915 39.6045 96.6205 47.0282 93.406 52.8921C90.3873 58.399 85.9347 61.8041 80.8643 62.4811C80.2501 62.5636 79.6285 62.6059 79.0159 62.6059C68.9178 62.6059 59.079 51.2571 57.0852 37.3078C55.9783 29.5555 57.2224 22.0251 60.5876 16.1021Z" fill="white"/>
<path d="M23.1336 46.5974C21.7147 46.5974 20.2883 46.7682 18.8701 47.1115C13.0793 48.553 8.50914 52.7256 6.0014 58.8605C3.64362 64.6287 3.35954 71.6267 5.19965 78.5641C8.57847 91.3392 18.1822 100.261 28.5514 100.261C29.9651 100.261 31.39 100.09 32.8119 99.7473C44.383 96.8628 50.3879 83.0486 46.4831 68.2997C43.1058 55.5218 33.5036 46.5974 23.1336 46.5974ZM31.121 93.2721C30.2695 93.4773 29.4044 93.5818 28.5514 93.5818C21.3304 93.5818 14.4733 86.724 11.8759 76.9035C10.3945 71.3208 10.5844 65.7862 12.4094 61.3207C14.083 57.2255 16.9863 54.4768 20.561 53.5866C21.4103 53.3814 22.2753 53.2777 23.1328 53.2777C30.3539 53.2777 37.2095 60.137 39.8069 69.9589C42.7524 81.0835 38.9252 91.326 31.121 93.2721Z" fill="white"/>
<path d="M145.038 0.189135C144.113 0.0635318 143.17 0 142.237 0C128.598 0 115.966 13.6491 113.478 31.0737C112.196 40.0704 113.631 48.932 117.521 56.0256C121.607 63.4786 127.887 68.1208 135.203 69.0972C136.12 69.2198 137.054 69.2819 137.98 69.2819C151.626 69.2819 164.268 55.6342 166.758 38.2133C168.063 29.0545 166.538 20.0578 162.464 12.8824C158.355 5.64412 152.163 1.13554 145.038 0.189135ZM159.93 37.2983C157.901 51.4879 148.26 62.603 137.979 62.603C137.367 62.603 136.75 62.5614 136.144 62.4811C131.079 61.8049 126.626 58.3997 123.607 52.8929C120.392 47.0289 119.22 39.6052 120.305 31.9894C122.298 18.0343 132.136 6.68034 142.236 6.68034C142.851 6.68034 143.472 6.72197 144.09 6.80595C149.012 7.46025 153.392 10.7617 156.423 16.1028C159.789 22.0273 161.033 29.5548 159.93 37.2983Z" fill="white"/>
<path d="M198.118 47.1056C196.724 46.7682 195.298 46.5974 193.88 46.5974C183.509 46.5974 173.906 55.5218 170.528 68.2997C166.628 83.0508 172.633 96.8642 184.224 99.7538C185.619 100.091 187.044 100.261 188.455 100.261C188.456 100.261 188.473 100.261 188.475 100.261C198.836 100.261 208.432 91.3392 211.812 78.5634C215.714 63.8087 209.709 49.993 198.118 47.1056ZM205.136 76.905C202.538 86.724 195.687 93.5818 188.475 93.581H188.46C187.606 93.581 186.742 93.4766 185.917 93.278C178.09 91.3267 174.264 81.0828 177.206 69.9567C179.802 60.1355 186.659 53.2762 193.88 53.2762C194.736 53.2762 195.601 53.3807 196.426 53.58C204.253 55.5305 208.078 65.776 205.136 76.905Z" fill="white"/>
<path d="M133.867 83.0194C124.069 83.0194 115.211 87.6185 108.495 96.0829C101.783 87.6193 92.9268 83.0194 83.1317 83.0194C68.343 83.0194 55.255 93.5073 51.3042 108.523C49.1876 116.566 48.7784 129.42 58.8463 144.978C68.1629 159.375 84.3109 172.715 106.844 184.625C107.358 184.898 107.926 185.033 108.494 185.033C109.061 185.033 109.629 184.898 110.144 184.625C132.682 172.714 148.835 159.375 158.155 144.978C168.227 129.419 167.819 116.566 165.703 108.523C161.752 93.5073 148.661 83.0194 133.867 83.0194ZM108.493 177.881C53.0057 147.951 55.7817 118.539 57.9827 110.175C61.1543 98.1196 71.4965 89.6998 83.1309 89.6998C91.9321 89.6998 99.8916 94.683 105.545 103.731C106.169 104.731 107.287 105.341 108.492 105.341C108.493 105.341 108.493 105.341 108.493 105.341C109.699 105.341 110.816 104.731 111.441 103.732C117.098 94.6823 125.063 89.699 133.867 89.699C145.508 89.699 155.852 98.1181 159.024 110.173C161.223 118.538 163.996 147.948 108.493 177.881Z" fill="white"/>
</g>
<defs>
<filter id="filter0_d_7_97" x="0" y="0" width="217" height="193.033" filterUnits="userSpaceOnUse" color-interpolation-filters="sRGB">
<feFlood flood-opacity="0" result="BackgroundImageFix"/>
<feColorMatrix in="SourceAlpha" type="matrix" values="0 0 0 0 0 0 0 0 0 0 0 0 0 0 0 0 0 0 127 0" result="hardAlpha"/>
<feOffset dy="4"/>
<feGaussianBlur stdDeviation="2"/>
<feComposite in2="hardAlpha" operator="out"/>
<feColorMatrix type="matrix" values="0 0 0 0 0 0 0 0 0 0 0 0 0 0 0 0 0 0 0.25 0"/>
<feBlend mode="normal" in2="BackgroundImageFix" result="effect1_dropShadow_7_97"/>
<feBlend mode="normal" in="SourceGraphic" in2="effect1_dropShadow_7_97" result="shape"/>
</filter>
</defs>
</svg>
